<svg width="223" height="38" viewBox="0 0 223 38" fill="none" xmlns="http://www.w3.org/2000/svg">
<path d="M8.59898 32.6691C8.27853 32.6691 7.96877 32.5563 7.73377 32.3205C4.46518 29.1936 2.67065 25.0209 2.67065 20.5919C2.67065 16.163 4.46518 12.0005 7.73377 8.86335C8.21444 8.402 8.99421 8.402 9.47488 8.86335C9.95556 9.3247 9.95556 10.0731 9.47488 10.5345C6.67628 13.2206 5.12744 16.7986 5.12744 20.5919C5.12744 24.3853 6.6656 27.9633 9.47488 30.6494C9.95556 31.1107 9.95556 31.8592 9.47488 32.3205C9.2292 32.5563 8.91943 32.6691 8.59898 32.6691Z" fill="#003756"/>
<path d="M31.3189 32.6691C30.9985 32.6691 30.6887 32.5563 30.4537 32.3205C29.973 31.8592 29.973 31.1107 30.4537 30.6494C33.2523 27.9633 34.8011 24.3853 34.8011 20.5817C34.8011 16.7781 33.2416 13.2206 30.443 10.5345C29.9624 10.0731 29.9624 9.3247 30.443 8.86335C30.9237 8.402 31.7035 8.402 32.1841 8.86335C35.4527 12.0005 37.2473 16.163 37.2473 20.5919C37.2473 25.0209 35.4527 29.1936 32.1841 32.3205C31.9491 32.5563 31.6287 32.6691 31.3189 32.6691Z" fill="#003756"/>
<path d="M30.6459 21.5964H21.4169C21.6092 22.4884 22.0471 23.1958 22.7094 23.7084C23.3823 24.221 24.1941 24.4773 25.1662 24.4773C26.3946 24.4773 27.3986 24.0775 28.1891 23.2676C28.3386 23.1138 28.5843 23.1035 28.7445 23.2368L30.24 24.4671C30.4109 24.6106 30.4322 24.8669 30.272 25.0309C29.7166 25.6153 29.0436 26.0972 28.2425 26.4663C27.3025 26.8969 26.2237 27.1122 24.9953 27.1122C23.7669 27.1122 22.5812 26.8456 21.5558 26.3125C20.541 25.7794 19.7292 25.0207 19.1417 24.016C18.5542 23.0215 18.2551 21.8733 18.2551 20.5815C18.2551 19.628 18.4154 18.7463 18.7465 17.9364C19.0669 17.1265 19.5156 16.4396 20.0924 15.8757C20.6692 15.3118 21.3635 14.871 22.1539 14.5531C22.9444 14.2353 23.7882 14.0815 24.6962 14.0815C26.4373 14.0815 27.89 14.5942 29.0757 15.6091C29.4175 15.9064 29.7166 16.2345 29.9622 16.6036C30.71 17.6903 31.0838 18.9719 31.0838 20.4379C31.0838 20.7353 31.0731 21.0018 31.0518 21.2376C31.0304 21.4427 30.8488 21.5964 30.6459 21.5964ZM22.688 17.3725C22.0792 17.8134 21.6733 18.4388 21.4596 19.3717H28.0502C27.922 18.7361 27.7191 18.2952 27.4414 17.9159C27.1636 17.5366 26.8005 17.2495 26.3625 17.0342C25.9246 16.8189 25.4119 16.7061 24.8564 16.7061C24.0126 16.7164 23.2969 16.9317 22.688 17.3725Z" fill="#003756"/>
<path d="M12.4017 26.9071H10.2119C9.98762 26.9071 9.80603 26.7328 9.80603 26.5175V19.3512C9.80603 16.4908 12.2201 14.1738 15.2003 14.1738H16.92C17.1443 14.1738 17.3259 14.3481 17.3259 14.5634V16.8394C17.3259 17.0547 17.1443 17.229 16.92 17.229H15.0187C13.801 17.229 12.8076 18.1825 12.8076 19.3512V26.5175C12.8076 26.7328 12.626 26.9071 12.4017 26.9071Z" fill="#003756"/>
<path d="M108.911 11.8261C108.515 11.4571 108.323 10.9957 108.323 10.4728C108.323 9.94997 108.515 9.48862 108.911 9.10928C109.306 8.72995 109.787 8.54541 110.363 8.54541C110.94 8.54541 111.389 8.72995 111.795 9.11954C112.201 9.50912 112.393 9.94997 112.393 10.4728C112.393 10.8214 112.297 11.1392 112.115 11.4365C111.934 11.7339 111.688 11.9697 111.367 12.1337C111.058 12.308 110.716 12.39 110.363 12.39C109.787 12.39 109.306 12.2055 108.911 11.8261ZM109.252 14.2764H111.421C111.656 14.2764 111.848 14.461 111.848 14.6865V26.4971C111.848 26.7227 111.656 26.9072 111.421 26.9072H109.252C109.017 26.9072 108.825 26.7227 108.825 26.4971V14.6763C108.836 14.4507 109.017 14.2764 109.252 14.2764Z" fill="#003756"/>
<path d="M114.155 24.9489L115.191 23.4726C115.33 23.2676 115.629 23.2368 115.822 23.3906C116.249 23.7494 116.698 24.016 117.178 24.2108C117.776 24.4466 118.481 24.5696 119.272 24.5696C119.838 24.5696 120.297 24.4568 120.618 24.2313C120.949 24.0057 121.109 23.7084 121.109 23.3291C121.109 23.0215 120.917 22.7755 120.554 22.5807C120.18 22.3859 119.496 22.1193 118.503 21.7912C118.108 21.6682 117.755 21.5349 117.445 21.4119C117.135 21.2889 116.826 21.1351 116.505 20.9608C116.185 20.7865 115.907 20.5917 115.683 20.3867C115.458 20.1714 115.245 19.9356 115.053 19.669C114.86 19.4025 114.721 19.1051 114.625 18.7668C114.529 18.4285 114.476 18.0594 114.476 17.6596C114.476 16.6344 114.914 15.7834 115.79 15.0965C116.666 14.4096 117.776 14.0815 119.112 14.0815C120.714 14.0815 122.156 14.5326 123.448 15.4246C123.63 15.5476 123.683 15.7937 123.566 15.9782L122.519 17.5468C122.38 17.7518 122.092 17.7929 121.9 17.6391C121.665 17.4648 121.419 17.311 121.162 17.1675C120.767 16.9624 120.393 16.8086 120.03 16.7164C119.667 16.6241 119.315 16.5728 118.951 16.5728C118.588 16.5728 118.278 16.6651 117.969 16.8497C117.67 17.0342 117.52 17.3008 117.52 17.6596C117.52 17.8646 117.616 18.0492 117.798 18.2337C117.979 18.4182 118.214 18.572 118.492 18.7258C118.77 18.8693 119.144 19.0334 119.614 19.2077C121.013 19.7408 121.878 20.0894 122.22 20.2534C123.085 20.7045 123.662 21.2479 123.929 21.8835C124.089 22.2833 124.164 22.7344 124.164 23.2573C124.164 23.7802 124.068 24.2928 123.865 24.7541C123.662 25.2155 123.363 25.6153 122.968 25.9639C122.572 26.3125 122.06 26.5893 121.43 26.7841C120.799 26.9789 120.073 27.0814 119.261 27.0814C117.317 27.0814 115.651 26.5483 114.251 25.482C114.07 25.3693 114.027 25.1335 114.155 24.9489Z" fill="#003756"/>
<path d="M139.204 20.4789C139.182 19.2589 138.894 18.1722 138.328 17.2085C137.74 16.214 136.918 15.4451 135.882 14.9017C134.878 14.3789 133.735 14.1123 132.474 14.0918C132.346 14.0815 132.218 14.0815 132.079 14.0815C131.182 14.0815 130.349 14.2456 129.558 14.5737C128.778 14.9017 128.106 15.3528 127.539 15.9269C126.973 16.5011 126.535 17.1982 126.215 18.0082C125.894 18.8283 125.724 19.6998 125.724 20.6327C125.724 21.4017 125.83 22.1193 126.033 22.796C126.236 23.4726 126.535 24.0672 126.92 24.5901C127.304 25.113 127.753 25.5538 128.276 25.9331C128.8 26.3125 129.387 26.5995 130.039 26.7943C130.69 26.9891 131.385 27.0814 132.1 27.0814C133.895 27.0814 135.284 26.4458 136.288 25.1847H136.33V26.4765C136.33 26.7021 136.523 26.8866 136.758 26.8866H138.798C139.033 26.8866 139.225 26.7021 139.225 26.4765L139.204 20.4789ZM135.22 23.4111C134.493 24.1185 133.607 24.4773 132.57 24.4773C131.46 24.4773 130.552 24.1185 129.847 23.4111C129.142 22.7037 128.789 21.781 128.789 20.6635C128.789 20.0689 128.885 19.5255 129.088 19.0231C129.281 18.5208 129.558 18.1004 129.9 17.7724C130.242 17.4443 130.648 17.1777 131.107 16.9932C131.566 16.8086 132.058 16.7164 132.592 16.7164C132.699 16.7164 132.805 16.7266 132.912 16.7266C133.788 16.8189 134.536 17.1675 135.145 17.7826C135.647 18.2747 136.01 18.8693 136.192 19.5562C136.213 19.6485 136.234 19.751 136.256 19.8433C136.298 20.0996 136.32 20.3662 136.32 20.6532C136.309 21.781 135.946 22.6934 135.22 23.4111Z" fill="#003756"/>
<path d="M105.386 17.2085C104.809 16.214 103.997 15.4451 102.972 14.9017C101.946 14.3584 100.771 14.0815 99.4572 14.0815C98.1434 14.0815 96.9257 14.3686 95.8789 14.9325C94.8321 15.4964 94.0416 16.2755 93.4755 17.27C92.9201 18.2542 92.6423 19.3717 92.6423 20.6122C92.6423 21.5349 92.8026 22.3859 93.1337 23.1855C93.4648 23.9852 93.9135 24.6721 94.5009 25.2565C95.0884 25.8306 95.8041 26.292 96.6586 26.62C97.5132 26.9481 98.4425 27.1122 99.4466 27.1122C100.75 27.1122 101.925 26.8456 102.95 26.3022C103.068 26.2407 103.174 26.1792 103.292 26.1074V26.497C103.292 27.389 102.95 28.1271 102.267 28.7218C101.583 29.3164 100.611 29.6035 99.3718 29.6035C98.5173 29.6035 97.7695 29.5009 97.1286 29.2959C96.6052 29.1318 96.0177 28.896 95.3662 28.5782C95.1312 28.4655 94.8321 28.5885 94.768 28.8345L94.2766 30.5979C94.2232 30.7825 94.3087 30.967 94.4796 31.0593C95.1418 31.4079 95.8789 31.6744 96.68 31.8795C97.5986 32.105 98.56 32.2178 99.5534 32.2178C100.547 32.2178 101.369 32.105 102.117 31.9C102.875 31.6847 103.506 31.3873 104.018 30.9978C104.531 30.6082 104.958 30.1468 105.3 29.5829C105.642 29.0293 105.888 28.4244 106.026 27.758C106.176 27.1019 106.251 26.3842 106.251 25.5948V20.6122C106.261 19.3307 105.973 18.2029 105.386 17.2085ZM102.149 23.3803C101.423 24.1082 100.525 24.4773 99.4679 24.4773C98.4104 24.4773 97.4598 24.1082 96.7548 23.3598C96.0391 22.6217 95.6866 21.699 95.6866 20.602C95.6866 19.505 96.0391 18.5618 96.7334 17.8236C97.4384 17.0855 98.3464 16.7164 99.4679 16.7164C100.59 16.7164 101.444 17.0752 102.16 17.8031C102.875 18.531 103.239 19.464 103.239 20.6122C103.239 21.7605 102.875 22.6524 102.149 23.3803Z" fill="#003756"/>
<path d="M66.6645 26.9174H64.4748C64.2398 26.9174 64.0475 26.7328 64.0475 26.5073V20.0894C64.0475 18.449 62.7337 17.0342 61.0246 16.9522C59.198 16.8702 57.6812 18.2645 57.6812 19.9971V26.5073C57.6812 26.7328 57.489 26.9174 57.254 26.9174H55.0642C54.8292 26.9174 54.637 26.7328 54.637 26.5073V20.1304C54.637 16.7881 57.489 13.9688 60.9605 14.0303C64.3573 14.0815 67.0811 16.7369 67.0811 19.9971V26.5073C67.0811 26.7328 66.8995 26.9174 66.6645 26.9174Z" fill="#003756"/>
<path d="M52.1053 21.5964H42.8764C43.0686 22.4884 43.5066 23.1958 44.1689 23.7084C44.8418 24.221 45.6643 24.4773 46.6256 24.4773C47.854 24.4773 48.8581 24.0775 49.6486 23.2676C49.7981 23.1138 50.0438 23.1035 50.204 23.2368L51.6994 24.4671C51.8703 24.6106 51.8917 24.8669 51.7315 25.0309C51.176 25.6153 50.5031 26.0972 49.702 26.4663C48.762 26.8969 47.6831 27.1122 46.4547 27.1122C45.2263 27.1122 44.0407 26.8456 43.0152 26.3125C42.0005 25.7794 41.1887 25.0207 40.6012 24.016C40.0137 23.0113 39.7146 21.8733 39.7146 20.5815C39.7146 19.628 39.8748 18.7463 40.206 17.9364C40.5264 17.1265 40.975 16.4396 41.5518 15.8757C42.1287 15.3118 42.8016 14.871 43.592 14.5531C44.3825 14.2353 45.2263 14.0815 46.1343 14.0815C47.8754 14.0815 49.3281 14.5942 50.5138 15.6091C50.8556 15.9064 51.1547 16.2345 51.4004 16.6036C52.1481 17.6903 52.5219 18.9719 52.5219 20.4379C52.5219 20.7353 52.5112 21.0018 52.4899 21.2376C52.4899 21.4427 52.319 21.5964 52.1053 21.5964ZM44.1582 17.3725C43.5493 17.8134 43.1434 18.4388 42.9298 19.3717H49.5204C49.3922 18.7361 49.1892 18.2952 48.9115 17.9159C48.6338 17.5366 48.2706 17.2495 47.8327 17.0342C47.3947 16.8189 46.882 16.7061 46.3266 16.7061C45.4827 16.7164 44.767 16.9317 44.1582 17.3725Z" fill="#003756"/>
<path d="M81.6082 21.5964H72.3792C72.5715 22.4884 73.0095 23.1958 73.6824 23.7084C74.3554 24.221 75.1778 24.4773 76.1392 24.4773C77.3676 24.4773 78.3717 24.0775 79.1621 23.2676C79.3117 23.1138 79.5573 23.1035 79.7176 23.2368L81.213 24.4671C81.3946 24.6106 81.4053 24.8669 81.245 25.0309C80.6896 25.6153 80.0166 26.0972 79.2155 26.4663C78.2755 26.8969 77.1967 27.1122 75.9683 27.1122C74.7399 27.1122 73.5436 26.8456 72.5288 26.3125C71.514 25.7794 70.7129 25.0207 70.1147 24.016C69.5166 23.0113 69.2281 21.8733 69.2281 20.5815C69.2281 19.628 69.3884 18.7463 69.7195 17.9364C70.04 17.1265 70.4886 16.4396 71.0654 15.8757C71.6422 15.3118 72.3152 14.871 73.1056 14.5531C73.896 14.2353 74.7399 14.0815 75.6478 14.0815C77.389 14.0815 78.8417 14.5942 80.0273 15.6091C80.3691 15.9064 80.6682 16.2345 80.9139 16.6036C81.6616 17.6903 82.0355 18.9719 82.0355 20.4379C82.0355 20.7353 82.0248 21.0018 82.0034 21.2376C81.9928 21.4427 81.8219 21.5964 81.6082 21.5964ZM73.661 17.3725C73.0522 17.8134 72.6463 18.4388 72.4327 19.3717H79.0232C78.8951 18.7361 78.6814 18.2952 78.4144 17.9159C78.1367 17.5366 77.7735 17.2495 77.3355 17.0342C76.8976 16.8189 76.3742 16.7164 75.8187 16.7164C74.9856 16.7164 74.2592 16.9317 73.661 17.3725Z" fill="#003756"/>
<path d="M86.9277 26.9176H84.7379C84.5136 26.9176 84.332 26.7433 84.332 26.528V19.3617C84.332 16.5013 86.7461 14.1843 89.7263 14.1843H91.446C91.6703 14.1843 91.8519 14.3586 91.8519 14.5739V16.8499C91.8519 17.0652 91.6703 17.2395 91.446 17.2395H89.5447C88.3163 17.2395 87.3336 18.193 87.3336 19.3617V26.528C87.3336 26.7433 87.152 26.9176 86.9277 26.9176Z" fill="#003756"/>
<rect x="144.883" y="8.51733" width="1.33533" height="22.2759" fill="#003756"/>
<path d="M188.112 5.98221C187.18 6.25991 186.665 6.78445 186.296 7.77182C185.894 8.83633 186.054 9.90084 186.681 10.2865C186.906 10.4254 187.164 10.4562 187.71 10.4254C188.53 10.3791 188.546 10.3945 188.16 11.1196C187.871 11.6596 186.89 11.9219 186.151 11.6596C185.942 11.5825 185.862 11.5979 185.749 11.783C185.588 12.0299 185.572 12.0144 186.07 12.1841C187.163 12.539 188.417 12.1378 188.883 11.2739C189.092 10.9036 190.089 6.42961 190.009 6.22905C189.896 5.95136 188.739 5.81251 188.112 5.98221ZM189.125 6.41418C189.253 6.49132 189.221 6.78445 188.916 8.17294C188.723 9.08317 188.498 9.88541 188.417 9.93169C188.353 9.97798 188.048 10.0243 187.758 10.0243C186.922 10.0243 186.665 9.56143 186.874 8.43521C187.019 7.67925 187.292 7.12386 187.742 6.73816C188.208 6.32162 188.771 6.1982 189.125 6.41418Z" fill="#003756"/>
<path d="M191.761 5.99758C191.471 6.05929 191.198 6.13643 191.15 6.19814C191.085 6.25985 190.153 10.1785 190.153 10.4253C190.153 10.4407 190.33 10.4562 190.523 10.4562H190.909L191.278 8.68199C191.777 6.32156 191.728 6.42955 192.339 6.42955C192.741 6.42955 192.886 6.36784 192.982 6.22899C193.03 6.10557 193.095 5.99758 193.095 5.95129C193.111 5.85873 192.355 5.88959 191.761 5.99758Z" fill="#003756"/>
<path d="M198.512 5.99768C198.254 6.05939 198.029 6.13652 197.981 6.18281C197.901 6.25994 196.647 11.8448 196.647 12.107C196.647 12.1687 196.808 12.1996 197.017 12.1687C197.37 12.1379 197.386 12.107 197.563 11.3202L197.74 10.5026L198.431 10.4871C198.801 10.4717 199.267 10.3946 199.46 10.302C200.264 9.90088 200.907 8.92893 201.051 7.849C201.228 6.36794 200.215 5.62741 198.512 5.99768ZM200.087 6.66106C200.264 6.86162 200.296 7.04676 200.248 7.69472C200.151 9.11407 199.412 10.0089 198.383 10.0089C198.013 10.0089 197.885 9.96259 197.885 9.83916C197.885 9.7466 198.046 8.99064 198.222 8.14212C198.415 7.30903 198.56 6.58392 198.56 6.55307C198.56 6.53764 198.672 6.4605 198.817 6.39879C199.203 6.25994 199.846 6.38337 200.087 6.66106Z" fill="#003756"/>
<path d="M203.254 5.99757C202.321 6.27527 201.614 7.50948 201.582 8.89797C201.566 9.83906 201.791 10.2093 202.498 10.4407C203.8 10.8881 205.07 9.68478 205.311 7.81804C205.456 6.70724 205.006 5.99757 204.089 5.92044C203.832 5.90501 203.446 5.93586 203.254 5.99757ZM204.186 6.44498C204.556 6.59925 204.636 6.90781 204.556 7.75633C204.443 9.03682 203.8 10.0088 203.028 10.0088C202.514 10.0088 202.305 9.73107 202.305 9.02139C202.305 7.78718 202.916 6.53754 203.607 6.36784C203.736 6.33698 203.848 6.30613 203.864 6.30613C203.88 6.33698 204.025 6.36784 204.186 6.44498Z" fill="#003756"/>
<path d="M193.641 6.18274C193.448 6.81528 192.998 9.12943 192.998 9.49969C192.998 10.0705 193.368 10.4254 194.059 10.5179C194.541 10.5951 195.634 10.4408 195.924 10.2711C195.988 10.2248 196.245 9.32999 196.47 8.28091C196.695 7.23182 196.904 6.29074 196.936 6.18274C196.985 6.02846 196.92 5.99761 196.599 5.99761C196.213 5.99761 196.197 6.01304 196.084 6.50672C195.329 9.94709 195.361 9.90081 195.104 9.96252C194.622 10.1014 194.123 10.0242 193.898 9.80824C193.77 9.68482 193.673 9.54597 193.673 9.49969C193.673 9.43798 193.834 8.69745 194.011 7.86436C194.204 7.01583 194.349 6.24445 194.349 6.15189C194.365 5.92047 193.706 5.9359 193.641 6.18274Z" fill="#003756"/>
<path d="M210.245 9.51522C209.329 9.82377 208.67 10.5797 208.67 11.3203C208.67 11.9682 209.442 12.6316 210.229 12.6316C211.065 12.6316 211.997 12.1071 212.367 11.4282C212.785 10.6414 212.383 9.70035 211.531 9.48436C211.001 9.34551 210.744 9.34551 210.245 9.51522Z" fill="#003756"/>
<path d="M165.641 9.59226C165.191 9.76196 164.628 10.2248 164.451 10.5642C164.226 10.9807 164.242 11.7676 164.467 12.0761C165.078 12.9246 166.782 12.8012 167.65 11.8447C168.598 10.7956 167.955 9.46884 166.492 9.48426C166.187 9.48426 165.801 9.54598 165.641 9.59226Z" fill="#003756"/>
<path d="M171.958 14.4828C171.588 14.5445 170.993 14.637 170.623 14.7142L169.948 14.853L169.772 15.4239C169.675 15.7478 169.53 16.2878 169.418 16.6272C169.321 16.9512 169.257 17.2443 169.289 17.2752C169.321 17.306 169.755 17.1826 170.286 17.0438C171.074 16.8123 171.443 16.7661 172.359 16.8123C173.324 16.8432 173.501 16.8741 173.726 17.09C173.983 17.3369 174.047 17.7843 173.903 18.3397C173.838 18.5865 173.758 18.6482 173.452 18.6482C173.002 18.6482 171.491 18.8951 170.527 19.1419C167.987 19.7745 166.444 21.1938 166.091 23.1994C165.833 24.665 166.476 25.7295 167.987 26.2849C168.55 26.5009 168.92 26.5472 170.447 26.5935C172.408 26.6552 173.71 26.4855 175.012 26.0381L175.687 25.8067L176.523 22.2583C177.246 19.2499 177.358 18.5557 177.391 17.63C177.407 16.6889 177.374 16.4729 177.149 16.0255C176.828 15.4084 176.153 14.8993 175.365 14.6679C174.658 14.4519 172.874 14.3594 171.958 14.4828ZM173.356 20.4996C173.356 20.5767 173.163 21.4715 172.938 22.4743C172.456 24.5725 172.504 24.5108 171.25 24.5108C170.463 24.5108 169.916 24.3256 169.723 23.9708C169.546 23.616 169.595 22.7366 169.852 22.212C170.286 21.2864 170.993 20.7927 172.263 20.515C173.163 20.3607 173.356 20.3453 173.356 20.4996Z" fill="#003756"/>
<path d="M182.116 14.4982C181.12 14.6371 179.946 14.8839 179.303 15.1462L178.837 15.3467L177.616 20.6693C176.941 23.6005 176.362 26.0998 176.33 26.2541L176.281 26.4855H180.011L181.104 21.7338C181.698 19.1111 182.229 16.9512 182.261 16.9049C182.309 16.8741 182.743 16.8278 183.258 16.8124C184.318 16.7815 184.833 16.9821 184.977 17.5066C185.026 17.7072 184.72 19.2345 184.077 22.0269C183.547 24.3411 183.113 26.3158 183.113 26.3775C183.113 26.4701 183.643 26.501 184.945 26.4701L186.778 26.4392L187.726 22.4126C188.24 20.191 188.723 18.1237 188.787 17.7997C188.899 17.3061 188.964 17.1981 189.35 17.0129C189.623 16.8741 190.025 16.797 190.378 16.797C191.294 16.797 191.728 17.1055 191.745 17.7535C191.745 18.0157 190.298 24.5571 189.848 26.2541L189.8 26.4855H193.545L193.722 25.745C195.04 20.1293 195.522 17.846 195.522 17.2752C195.506 16.4113 195.233 15.7787 194.606 15.2542C193.898 14.6371 193.127 14.4365 191.632 14.4519C190.298 14.4674 189.333 14.6679 188.321 15.1616L187.662 15.4702L187.115 15.1462C186.826 14.9611 186.328 14.7296 186.006 14.6525C185.315 14.4365 183.225 14.3594 182.116 14.4982Z" fill="#003756"/>
<path d="M201.019 14.4828C200.649 14.5445 200.071 14.637 199.701 14.7142L199.026 14.853L198.672 16.0564C198.463 16.7198 198.319 17.2752 198.335 17.2906C198.351 17.306 198.801 17.2135 199.331 17.0592C200.328 16.7815 201.903 16.7044 202.45 16.9049C202.932 17.0746 203.125 17.4757 203.012 18.0774L202.916 18.5865L201.55 18.7717C197.708 19.3116 195.699 20.623 195.184 22.9988C194.831 24.5879 195.458 25.6987 197.017 26.2849C197.579 26.4855 197.933 26.5318 199.556 26.5781C201.132 26.6089 201.614 26.5781 202.594 26.3929C203.655 26.1924 204.78 25.8221 204.78 25.6833C204.78 25.6524 205.166 23.9554 205.632 21.9343C206.613 17.7072 206.677 17.0129 206.211 16.0564C205.873 15.393 205.247 14.8993 204.395 14.6679C203.72 14.4519 201.935 14.3594 201.019 14.4828ZM202.418 20.7773C202.369 21.0087 202.16 21.8726 201.967 22.7211C201.775 23.5697 201.566 24.2948 201.501 24.3565C201.453 24.4182 201.019 24.4799 200.553 24.4953C198.913 24.5879 198.319 23.8628 198.833 22.428C199.203 21.4252 200.006 20.8081 201.292 20.5304C202.482 20.299 202.53 20.3144 202.418 20.7773Z" fill="#003756"/>
<path d="M215.486 14.5445C213.846 14.8993 212.641 15.717 212.094 16.8586C211.692 17.6917 211.66 18.9877 212.046 19.6665C212.4 20.2836 213.235 20.9778 214.344 21.5641C215.373 22.0886 215.823 22.5514 215.823 23.0606C215.823 23.4463 215.373 23.9245 214.955 24.0325C214.248 24.2022 212.48 23.8937 211.274 23.3845C211.13 23.3228 211.017 23.5234 210.68 24.4799C210.439 25.1279 210.262 25.6833 210.262 25.7141C210.262 25.8375 211.339 26.2387 212.094 26.4084C213.043 26.6244 215.116 26.6089 215.984 26.4084C218.202 25.853 219.376 24.6496 219.52 22.8291C219.568 22.1812 219.536 21.9652 219.327 21.4869C218.99 20.7618 218.154 19.975 216.997 19.3733C215.791 18.7408 215.357 18.3551 215.357 17.954C215.357 17.4912 215.855 17.0438 216.498 16.9512C217.093 16.8586 218.363 17.0283 218.958 17.2598C219.327 17.414 219.343 17.414 219.456 17.1209C219.585 16.7969 220.244 15.0073 220.244 14.961C220.244 14.9456 219.906 14.8222 219.488 14.6833C218.475 14.4056 216.514 14.3131 215.486 14.5445Z" fill="#003756"/>
<path d="M151.56 14.7606C151.56 15.0383 152.765 25.2514 152.878 25.9611L152.942 26.3776H156.414L159.452 20.7928C161.124 17.7227 162.603 15.0383 162.715 14.8377L162.94 14.4829H159.549L157.764 18.1701C156.784 20.1911 155.884 22.1196 155.771 22.459L155.546 23.0453L155.594 22.4436C155.611 22.1196 155.578 20.33 155.482 18.4632C155.402 16.5965 155.321 14.9612 155.321 14.776V14.4829H151.576L151.56 14.7606Z" fill="#003756"/>
<path d="M163.599 14.5754C163.599 14.6371 161.895 22.6132 161.14 26.069L161.076 26.3776H164.676L165.914 20.5768C166.589 17.3987 167.168 14.7143 167.2 14.6371C167.232 14.5446 166.83 14.4983 165.416 14.4983C164.403 14.4983 163.599 14.5291 163.599 14.5754Z" fill="#003756"/>
<path d="M208.092 14.5136C208.092 14.529 207.513 17.198 206.806 20.4378L205.536 26.3158L207.288 26.3466C208.252 26.362 209.056 26.362 209.088 26.3312C209.136 26.2849 211.628 14.7604 211.628 14.5907C211.612 14.5136 208.124 14.421 208.092 14.5136Z" fill="#003756"/>
</svg>
